<svg width="601" height="744" viewBox="0 0 601 744" fill="none" xmlns="http://www.w3.org/2000/svg">
<path d="M169.37 89.55C214.11 92.8833 257.777 94.6167 300.37 94.75H300.43H304.32C348.827 94.75 392.14 92.96 434.26 89.38C474.26 86.2333 508.927 79.14 538.26 68.1C539.3 56.84 538.967 47.6933 537.26 40.66C536.43 36.9219 534.965 33.3536 532.93 30.11C532.81 29.9 532.68 29.7 532.55 29.5L531.98 28.68C531.84 28.48 531.71 28.27 531.56 28.08C527.773 22.9733 522.39 18.8467 515.41 15.7C511.31 13.4333 505.187 11.4333 497.04 9.7H496.97L494.92 9.22C492.92 8.80667 490.81 8.41333 488.59 8.04L488.23 8L486.42 7.71L485.85 7.61L484.18 7.36L483.51 7.25L481.83 7L481.15 6.9L479.27 6.64L478.75 6.57L476.26 6.25H476.05L473.76 5.97L472.9 5.87L471.18 5.67L470.18 5.55L468.55 5.37L467.45 5.26L465.81 5.09L464.68 4.97L462.89 4.8L461.89 4.7L459.34 4.47H459.04C443.153 3.21667 422.243 2.21667 396.31 1.47L393.87 1.41C391.25 1.33 388.58 1.27 385.87 1.2C378.17 0.98 370.08 0.796667 361.6 0.65C343.093 0.343333 322.693 0.126667 300.4 0H300.33C237.663 0.333333 189.997 1.45 157.33 3.35C151.69 3.67 146.48 4.02 141.73 4.4H141.34L138.92 4.66L137.86 4.76L136.18 4.92L134.98 5.04L133.48 5.2L132.29 5.32L130.84 5.48L129.67 5.61L128.25 5.78L127.14 5.91L125.71 6.08L124.65 6.21L123.15 6.41L122.26 6.52L119.96 6.83L119.4 6.92L117.68 7.16L116.83 7.29L115.47 7.5L114.56 7.64L113.32 7.85L112.43 7.99L111.22 8.2L110.36 8.35L109.18 8.57L108.36 8.72L107.17 9L106.44 9.14L105.11 9.41L104.58 9.52L102.8 9.91C95.1332 11.5967 89.3366 13.5267 85.4099 15.7C78.6099 18.76 73.3232 22.76 69.5499 27.7L69.2399 28.15C68.9299 28.56 68.6299 28.97 68.3399 29.4C68.1899 29.62 68.0599 29.85 67.9099 30.08C67.7599 30.31 67.4399 30.83 67.2199 31.21C67.1796 31.2677 67.1429 31.3278 67.1099 31.39C65.4672 34.2967 64.2642 37.4307 63.5399 40.69C61.7932 47.6633 61.4466 56.7667 62.4999 68L63.1099 68.24C84.6899 77.9867 120.11 85.09 169.37 89.55Z" fill="white"/>
<path d="M600.8 332.11V293.26C600.507 267.64 598.863 244.823 595.87 224.81C590.93 195.897 582.307 175.35 570 163.17C560.173 152.043 543.893 142.21 521.16 133.67L518.09 113.9C468.963 123.18 396.403 128.61 300.41 130.19C294.47 130.1 288.63 129.98 282.87 129.86H282.48C221.813 128.527 171.12 125.527 130.4 120.86L123.22 120C117.773 119.333 112.51 118.64 107.43 117.92C98.61 116.66 90.36 115.303 82.68 113.85L79.61 133.62C56.8833 142.16 40.6033 151.993 30.77 163.12C18.47 175.347 9.85333 195.91 4.92 224.81C1.93333 244.81 0.293333 267.627 0 293.26V332.11L2.06 447.11L1.84 537.82C1.68667 572.16 5.58667 600.777 13.54 623.67C31.1333 668.29 61.7067 699.823 105.26 718.27C131.54 733.69 196.567 742.237 300.34 743.91H300.54C404.307 742.243 469.333 733.697 495.62 718.27C539.18 699.817 569.753 668.283 587.34 623.67C595.287 600.783 599.187 572.167 599.04 537.82L598.82 447.11L600.8 332.11Z" fill="white"/>
<mask id="mask0_17_64" style="mask-type:luminance" maskUnits="userSpaceOnUse" x="0" y="113" width="601" height="631">
<path d="M600.8 332.11V293.26C600.507 267.64 598.863 244.823 595.87 224.81C590.93 195.897 582.307 175.35 570 163.17C560.173 152.043 543.893 142.21 521.16 133.67L518.09 113.9C468.963 123.18 396.403 128.61 300.41 130.19C294.47 130.1 288.63 129.98 282.87 129.86H282.48C221.813 128.527 171.12 125.527 130.4 120.86L123.22 120C117.773 119.333 112.51 118.64 107.43 117.92C98.61 116.66 90.36 115.303 82.68 113.85L79.61 133.62C56.8833 142.16 40.6033 151.993 30.77 163.12C18.47 175.347 9.85333 195.91 4.92 224.81C1.93333 244.81 0.293333 267.627 0 293.26V332.11L2.06 447.11L1.84 537.82C1.68667 572.16 5.58667 600.777 13.54 623.67C31.1333 668.29 61.7067 699.823 105.26 718.27C131.54 733.69 196.567 742.237 300.34 743.91H300.54C404.307 742.243 469.333 733.697 495.62 718.27C539.18 699.817 569.753 668.283 587.34 623.67C595.287 600.783 599.187 572.167 599.04 537.82L598.82 447.11L600.8 332.11Z" fill="white"/>
</mask>
<g mask="url(#mask0_17_64)">
<path d="M677.99 553.7C646.02 588.09 624.92 634 585.92 661.84C511.22 715 474.23 647.34 421.82 604.48C294 499.94 251.97 608.97 163.16 688.48C136.16 712.63 68.61 758.92 34.64 768.04C-6.18002 779 -42.71 776.17 -77.27 750.5V476.73C-65.63 488 -57.73 503 -46.7 515.24C-29.55 534.24 -0.970016 558.24 26.21 556.81C64.7 554.81 114.78 481.59 144.74 456.59C199.01 411.32 226.19 478.08 277.21 485.03C358.72 496.11 386.61 395.43 427.21 347.42C454.1 315.66 488.96 371.8 506.6 386.66C539.81 414.66 577.78 414.74 613.12 389.99C639 371.87 649.43 337.73 677.95 322.79L677.99 553.7Z" fill="#009B10"/>
<path d="M677.99 590.44V877.33C609.31 940 580.57 860.85 543.32 817C494.13 759.12 436.95 762.8 391.57 822.49C365.62 856.65 333.71 930.2 295.12 946.44C263.51 959.74 247.61 931.44 226.01 914.11C131.38 838.37 129.01 973.57 63.01 983.61C34.99 987.89 10.11 952 -10.01 935.1C-27.25 920.63 -53.68 896.25 -77.27 907.1V775.87C-42.53 791.32 -7.50002 793.98 29.73 787.63C91.46 777.11 124.49 751.56 169.22 710.29C203.67 678.51 271.92 591.41 314.22 584.22C412 567.58 464.92 723.08 552.17 701.58C583.09 693.96 626.37 654.26 646.47 629.75C657.06 616.82 664.36 600.65 677.99 590.44Z" fill="#005329"/>
<path d="M677.99 305.3C649.2 314.7 633.15 345.96 610.73 364.82C593.2 379.57 569.65 388.35 546.78 383.23C495.24 371.69 468.18 278.06 409.61 340.23C378.98 372.76 354.51 436.82 313.8 459.54C265.57 486.5 224.09 411 170.53 419.42C133.32 425.27 83.81 494.11 53.92 519.61C28.43 541.33 16.54 538.83 -8.85997 519.41C-34.1 500.11 -54.59 473.58 -77.22 451.41V284.31C-63.53 297.24 -44.28 310.71 -25.22 313.62C38.28 323.3 79.85 211.76 128.54 184.91C147.46 174.47 171.22 191.64 185.86 203.91C222.43 234.48 252.42 309.56 309.74 278.77C350.32 256.96 366.02 202.14 395.38 176.42C445.84 132.19 493.74 203.57 546.28 208.89C589.93 213.32 605.62 190.62 639.06 170.95C651.67 163.54 664.86 157.56 678.06 151.38L677.99 305.3Z" fill="#44BA00"/>
<path d="M677.99 112.87V119.87C657.18 137.6 637.66 154.45 614.22 168.87C580.28 189.76 564.08 199.51 523.69 184.16C496.26 173.73 473.12 148.82 442.82 146.16C365.46 139.25 360.03 210.28 311.82 251.16C287.75 271.54 269.36 273.85 248 248.46C226.85 223.33 214.76 200.68 185.57 181.46C109.76 131.56 86.82 203 43.41 250.24C28.35 266.63 -3.26002 301.6 -27.87 291.73L-77.27 251.94V112.87H677.99Z" fill="#85DF00"/>
</g>
<mask id="mask1_17_64" style="mask-type:luminance" maskUnits="userSpaceOnUse" x="61" y="0" width="478" height="95">
<path d="M169.37 89.55C214.11 92.8833 257.777 94.6167 300.37 94.75H300.43H304.32C348.827 94.75 392.14 92.96 434.26 89.38C474.26 86.2333 508.927 79.14 538.26 68.1C539.3 56.84 538.967 47.6933 537.26 40.66C536.43 36.9219 534.965 33.3536 532.93 30.11L532.55 29.5L531.98 28.68C531.84 28.48 531.71 28.27 531.56 28.08C527.773 22.9733 522.39 18.8467 515.41 15.7C511.31 13.4333 505.187 11.4333 497.04 9.7H496.97L494.92 9.22C492.92 8.80667 490.81 8.41333 488.59 8.04L488.23 8L486.42 7.71L485.85 7.61L484.18 7.36L483.51 7.25L481.83 7L481.15 6.9L479.27 6.64L478.75 6.57L476.26 6.25H476.05L473.76 5.97L472.9 5.87L471.18 5.67L470.18 5.55L468.55 5.37L467.45 5.26L465.81 5.09L464.68 4.97L462.89 4.8L461.89 4.7L459.34 4.47H459.04C443.153 3.21667 422.243 2.21667 396.31 1.47L393.87 1.41C391.25 1.33 388.58 1.27 385.87 1.2C378.17 0.98 370.08 0.796667 361.6 0.65C343.093 0.343333 322.693 0.126667 300.4 0H300.33C237.663 0.333333 189.997 1.45 157.33 3.35C151.69 3.67 146.48 4.02 141.73 4.4H141.34L138.92 4.66L137.86 4.76L136.18 4.92L134.98 5.04L133.48 5.2L132.29 5.32L130.84 5.48L129.67 5.61L128.25 5.78L127.14 5.91L125.71 6.08L124.65 6.21L123.14 6.41L122.26 6.52L119.96 6.83L119.4 6.92L117.68 7.16L116.83 7.29L115.47 7.5L114.56 7.64L113.32 7.85L112.43 7.99L111.21 8.2L110.36 8.35L109.17 8.57L108.36 8.72L107.17 9L106.44 9.14L105.11 9.41L104.58 9.52L102.8 9.91C95.1332 11.5967 89.3366 13.5267 85.4099 15.7C78.6099 18.76 73.3232 22.76 69.5499 27.7L69.2399 28.15C68.9299 28.56 68.6299 28.97 68.3399 29.4C68.1899 29.62 68.0599 29.85 67.9099 30.08C67.7599 30.31 67.4399 30.83 67.2199 31.21C67.1796 31.2677 67.1429 31.3278 67.1099 31.39C65.4672 34.2967 64.2642 37.4307 63.5399 40.69C61.7932 47.6633 61.4466 56.7667 62.4999 68L63.1099 68.24C84.6899 77.9867 120.11 85.09 169.37 89.55Z" fill="white"/>
</mask>
<g mask="url(#mask1_17_64)">
<path d="M558.3 77.3C526.3 111.7 505.23 157.62 466.19 185.44C391.53 238.62 354.53 170.94 302.13 128.08C174.31 23.54 132.28 132.57 43.47 212.08C16.48 236.2 -51.08 282.49 -85.08 291.61C-125.9 302.61 -162.42 299.77 -196.99 274.1V0.330002C-185.35 11.63 -177.44 26.63 -166.42 38.84C-149.27 57.84 -120.69 81.84 -93.5 80.41C-55.01 78.41 -4.93999 5.19 25.03 -19.81C79.32 -65.08 106.5 1.69 157.52 8.63C239.02 19.71 266.92 -81 307.56 -129C334.45 -160.76 369.3 -104.62 386.94 -89.76C420.15 -61.76 458.13 -61.68 493.46 -86.43C519.35 -104.55 529.78 -138.69 558.3 -153.63V77.3Z" fill="#00542A"/>
<path d="M558.3 114V400.93C489.61 463.55 460.87 384.45 423.63 340.63C374.44 282.75 317.25 286.43 271.87 346.12C245.92 380.25 214.02 453.8 175.43 470C143.82 483.3 127.91 455 106.31 437.67C11.69 361.93 9.30998 497.13 -56.69 507.17C-84.75 511.45 -109.63 475.55 -129.74 458.66C-146.98 444.19 -173.42 419.81 -197.01 430.66V299.47C-162.27 314.92 -127.23 317.59 -90.01 311.23C-28.27 300.71 4.74998 275.16 49.49 233.89C83.93 202.11 152.19 115.01 194.49 107.82C292.24 91.18 345.14 246.68 432.42 225.18C463.34 217.56 506.62 177.86 526.72 153.35C537.37 140.42 544.66 124.25 558.3 114Z" fill="#4BF273"/>
<path d="M558.3 -171.1C529.51 -161.7 513.46 -130.44 491.03 -111.58C473.5 -96.83 449.92 -88 427.09 -93.17C375.54 -104.71 348.48 -198.34 289.91 -136.17C259.29 -103.64 234.82 -39.58 194.11 -16.86C145.92 10.1 104.39 -65.4 50.84 -57C13.63 -51.13 -35.88 17.71 -65.82 43.22C-91.31 64.93 -103.2 62.43 -128.6 43.01C-153.85 23.71 -174.34 -2.81998 -196.97 -24.99V-192.09C-183.27 -179.16 -164.02 -165.69 -144.97 -162.78C-81.48 -153.1 -39.91 -264.64 8.77003 -291.49C27.69 -301.93 51.45 -284.76 66.1 -272.49C102.66 -241.92 132.65 -166.84 189.97 -197.63C230.56 -219.44 246.25 -274.26 275.61 -299.98C326.08 -344.2 373.97 -272.83 426.51 -267.51C470.17 -263.08 485.85 -285.78 519.3 -305.44C531.9 -312.86 545.1 -318.84 558.3 -325.02V-171.1Z" fill="#4BF273"/>
</g>
<path d="M459.84 254.79V229.79H149.06V627.91H174.06H277.72H278.28H278.83C325.389 625.946 369.609 606.963 403.1 574.56C436.59 542.079 456.807 498.306 459.82 451.75L459.88 450.93V450.1L459.84 254.79Z" fill="white"/>
<path d="M277.39 449.76H228.18V254.76H174.06V504.5C179.54 504.44 185.02 504.413 190.5 504.42C206.09 504.42 221.7 504.6 237.29 504.6C251.98 504.6 266.67 504.44 281.29 503.82C309.51 498.96 329.13 473.68 331.51 445.82V419H277.39V449.76Z" fill="#43BB00"/>
<path d="M434.84 254.79H277.39V347H331.52V309.53H380.72V443.95C378.07 498.73 335.72 543.73 280.78 548.2H174.04V602.94H277.7C361.66 599.22 429.31 534.07 434.92 450.1L434.84 254.79Z" fill="#85DF00"/>
</svg>
